HIERARCHY
ROOT Hips
{
     OFFSET 1.88212 96.90440 -13.34250
     CHANNELS 6 Xposition Yposition Zposition Zrotation Xrotation Yrotation
     JOINT Spine
     {
          OFFSET 0.00000 11.89050 0.00000
          CHANNELS 3 Zrotation Xrotation Yrotation
          JOINT Spine1
          {
               OFFSET -0.00000 25.65740 0.12766
               CHANNELS 3 Zrotation Xrotation Yrotation
               JOINT HEad
               {
                    OFFSET 0.00000 8.73416 0.01134
                    CHANNELS 3 Zrotation Xrotation Yrotation
                    End Site
                    {
                         OFFSET -0.29000 12.77420 2.51395
                    }
               }
               JOINT LeftShoulder1
               {
                    OFFSET 8.99000 -0.36225 -0.22000
                    CHANNELS 3 Zrotation Xrotation Yrotation
                    JOINT LeftArm
                    {
                         OFFSET 10.28270 -0.00338 0.32212
                         CHANNELS 3 Zrotation Xrotation Yrotation
                         JOINT LeftForeArm
                         {
                              OFFSET 32.76690 0.09914 -1.42434
                              CHANNELS 3 Zrotation Xrotation Yrotation
                              JOINT LeftHand
                              {
                                   OFFSET 27.56430 0.08536 1.02216
                                   CHANNELS 3 Zrotation Xrotation Yrotation
                                   End Site
                                   {
                                        OFFSET 16.74430 -0.60000 1.50291
                                   }
                              }
                         }
                    }
               }
               JOINT RightShoulder
               {
                    OFFSET -8.99000 -0.36225 -0.22000
                    CHANNELS 3 Zrotation Xrotation Yrotation
                    JOINT RightArm
                    {
                         OFFSET -10.28270 -0.00338 0.32212
                         CHANNELS 3 Zrotation Xrotation Yrotation
                         JOINT RightForeArm
                         {
                              OFFSET -32.89710 0.09914 -1.42434
                              CHANNELS 3 Zrotation Xrotation Yrotation
                              JOINT RightHand
                              {
                                   OFFSET -27.49210 0.08536 1.02216
                                   CHANNELS 3 Zrotation Xrotation Yrotation
                                   End Site
                                   {
                                        OFFSET -16.63120 -0.60000 1.50291
                                   }
                              }
                         }
                    }
               }
          }
     }
     JOINT LeftUpLeg
     {
          OFFSET 8.94580 -8.66707 0.10165
          CHANNELS 3 Zrotation Xrotation Yrotation
          JOINT LeftLeg
          {
               OFFSET 0.00000 -44.42270 1.37270
               CHANNELS 3 Zrotation Xrotation Yrotation
               JOINT LeftFoot
               {
                    OFFSET -0.25355 -42.09240 -1.46059
                    CHANNELS 3 Zrotation Xrotation Yrotation
                    JOINT LeftToes
                    {
                         OFFSET -0.04000 -4.41509 8.49910
                         CHANNELS 3 Zrotation Xrotation Yrotation
                         End Site
                         {
                              OFFSET 0.08000 -0.04745 9.77979
                         }
                    }
               }
          }
     }
     JOINT RightUpLeg
     {
          OFFSET -8.94580 -8.66707 0.10165
          CHANNELS 3 Zrotation Xrotation Yrotation
          JOINT RightLeg
          {
               OFFSET 0.00000 -44.42270 1.37270
               CHANNELS 3 Zrotation Xrotation Yrotation
               JOINT RightFoot
               {
                    OFFSET 0.25355 -42.09240 -1.46059
                    CHANNELS 3 Zrotation Xrotation Yrotation
                    JOINT RightToes
                    {
                         OFFSET 0.04000 -4.41509 8.49910
                         CHANNELS 3 Zrotation Xrotation Yrotation
                         End Site
                         {
                              OFFSET -0.08000 -0.13745 9.77979
                         }
                    }
               }
          }
     }
}
MOTION
Frames: 17
Frame Time: 0.01667
42.35524 95.71323 -117.40738 -0.22192 2.42679 -23.88009 8.54648 -3.69716 8.38389 -0.04681 0.08582 0.03997 -12.27543 11.78056 12.52673 -27.56740 28.28883 24.22120 -115.47467 -45.67390 -125.69939 -26.61142 44.51035 -89.32739 8.64355 4.96256 1.13628 -17.80907 29.08160 25.60592 101.16409 -20.44675 91.03523 47.18185 49.97594 81.58652 -9.59762 17.19482 2.80089 14.57197 -9.22023 7.69730 4.14375 7.86526 -1.63845 29.60313 -0.04695 0.20414 -50.04074 -10.75289 -0.67097 -4.23501 16.72386 -22.21741 -4.27590 0.08790 15.88181 1.09073 -0.00587 0.01957 1.21130 -24.88897 -3.69786 
41.70913 93.46085 -117.42924 1.51272 1.14840 -18.95549 2.82197 0.13828 6.26427 -0.03956 0.07172 0.02497 -10.74847 10.57036 11.91435 -24.21680 26.28928 20.49957 -115.57362 -44.52858 -125.08212 -32.17651 42.82778 -84.20166 6.45032 8.45955 -1.24481 -27.15536 31.66192 30.82631 108.86602 -21.22494 95.73404 50.42674 52.68257 84.75187 -3.07483 1.60009 -2.96757 12.22896 -13.77001 4.34379 4.76116 15.82348 -0.62436 34.47272 -0.02294 0.23193 -56.39248 -13.24915 -4.56667 -5.10379 14.53270 -26.64209 -7.38818 7.08194 14.91189 2.00018 -0.02442 0.04460 0.65435 -27.53135 -4.26157 
40.96513 90.82156 -117.68340 3.12018 0.02720 -14.55273 -2.90132 5.39120 5.46401 -0.03749 0.06429 0.01609 -9.12550 9.41188 11.61108 -20.01950 23.91837 16.52796 -118.38279 -41.90538 -122.26040 -33.57010 46.00544 -84.68827 5.42953 10.65147 -2.42404 -21.78610 28.89597 25.71148 102.56188 -22.09117 87.41663 45.88228 54.32827 94.54756 -9.14616 15.44825 2.74486 9.69906 -19.14173 2.03111 5.90151 23.91707 -1.02680 39.43968 0.00431 0.19209 -62.76196 -15.11859 -7.83875 -6.42273 11.43972 -29.56723 -11.17922 16.51068 14.33223 3.10521 -0.01539 0.05777 -3.26704 -15.88622 -12.48210 
40.12762 87.87558 -118.22266 4.62253 -0.95926 -10.60766 -8.38868 11.45893 5.67026 -0.03279 0.05992 0.00757 -7.78344 8.50440 12.03399 -16.13407 21.15953 12.72519 -120.36177 -39.78332 -120.48074 -34.68868 48.74858 -85.40269 12.99911 -3.31828 7.74020 -16.49311 25.85888 20.92821 98.42912 -22.15162 82.46907 42.29596 54.98214 100.94708 -4.49751 -7.47352 -11.93442 7.00114 -25.03394 0.66533 8.13739 32.34560 -3.16630 44.40730 0.02300 0.16847 -69.18271 -16.89800 -10.71844 -8.23392 7.41949 -31.19434 -15.56528 27.07845 15.02575 4.16424 -0.05461 0.06542 -1.42347 -28.13137 -8.66768 
39.13423 84.41619 -119.11163 6.04910 -1.79523 -7.01559 -13.74816 18.12053 6.76335 -0.02474 0.05886 -0.00176 -6.82192 7.61791 13.30368 -19.44026 27.75059 13.87095 -124.20016 -30.47882 -125.86019 -39.47758 51.45642 -82.85026 5.81690 12.47657 -2.85638 -18.73476 32.03189 22.51751 100.33600 -22.96516 87.08233 40.36668 55.40738 104.04423 -9.95744 10.25347 -1.77774 4.31344 -31.40314 0.20046 12.55431 41.25384 -8.01917 48.76107 0.04749 0.13829 -75.48615 -19.11024 -13.52310 -10.40439 2.46578 -31.79387 -22.17471 40.21914 18.45701 5.91023 -0.03895 0.11941 -6.92650 -15.61923 -4.93809 
38.09713 80.96011 -120.25142 7.41606 -2.45927 -3.76032 -19.15454 25.15912 8.77392 -0.01775 0.05689 -0.00543 -6.31639 6.60186 15.41249 -14.75053 23.93199 9.31086 -125.76172 -29.80882 -122.00932 -42.36140 54.12635 -81.71105 15.35814 -4.97068 13.76546 -12.06893 28.05406 17.23054 95.76185 -23.02021 81.20276 45.09983 55.02007 97.88767 -3.69713 7.11919 -0.01111 1.71530 -38.09093 0.65123 20.15164 49.79103 -16.65268 52.74326 0.06346 0.10965 -81.61992 -21.35902 -16.10672 -12.75834 -3.26861 -31.48658 -32.40999 53.08515 26.47040 6.77457 -0.09636 0.05897 -6.84569 -26.60117 -8.88956 
37.03524 77.43050 -121.58090 8.73958 -2.94137 -0.86017 -24.81875 32.37397 11.79355 -0.00853 0.05629 -0.00757 -5.70632 4.55437 17.02797 -10.66824 19.74751 5.34984 -126.82258 -29.46032 -119.08644 -43.84016 56.81169 -81.86789 13.83052 6.99120 3.39436 -6.02382 23.57302 12.97555 92.59380 -23.08332 77.28876 46.73944 55.11274 95.69904 -8.15584 17.21910 7.35301 -0.96626 -44.10284 1.14415 30.78390 56.24413 -28.35945 56.52808 0.06492 0.07835 -87.39766 -23.36228 -18.31945 -14.98075 -9.42675 -30.28202 -51.03174 64.59543 43.65326 8.44747 -0.04378 0.11322 -18.11474 -24.75801 -1.63136 
35.88380 73.49437 -123.01674 9.99524 -3.23915 1.69206 -30.85877 39.56374 15.90534 0.00509 0.05177 -0.00769 -5.18125 1.64645 18.15213 -8.66089 26.24783 7.10971 -129.63545 -18.99599 -123.23813 -47.10012 57.03977 -75.64905 11.46005 2.67050 4.10051 -1.08679 30.07843 14.27297 93.68557 -27.25934 87.13043 46.68037 55.61866 95.71063 -11.63279 -1.71932 -3.50277 -3.56761 -49.60957 1.70598 43.95381 60.19151 -42.75415 60.05127 0.05333 0.04745 -92.71706 -24.89390 -19.96250 -17.36530 -15.93333 -28.24919 -71.00502 67.92440 62.61534 2.54617 -0.04811 -0.03199 -3.53367 -30.19052 -10.62486 
34.75066 69.63223 -124.47208 11.11289 -3.34980 3.83817 -37.45517 46.51408 21.29721 0.01764 0.05081 -0.00561 -4.91317 -1.97075 18.75557 -4.15212 20.46790 3.78789 -130.50877 -23.82470 -119.31480 -48.31925 57.09085 -77.45456 10.25242 9.67847 -4.58360 4.18336 23.86368 11.07954 91.56060 -27.26586 83.88441 45.51423 56.37592 96.97358 -13.58134 6.56144 0.42988 -5.94771 -54.61666 2.36274 57.44711 61.57992 -57.61945 63.28561 0.03503 0.02109 -97.36358 -25.92325 -20.98104 -19.23199 -22.43781 -25.19208 -94.35132 69.36221 84.53223 5.13304 -0.16522 0.01088 -4.11920 -28.27232 -10.58571 
33.68928 65.94690 -125.93588 12.05145 -3.28015 5.54043 -44.29401 52.86869 27.70322 0.02717 0.05247 -0.00448 -5.30589 -5.81418 18.85756 -0.79819 14.74688 1.48766 -130.97862 -26.67856 -116.56812 -48.74174 57.12448 -78.93595 9.49621 7.12609 -1.95275 7.97714 17.75274 8.95169 89.97721 -27.20991 81.45257 43.97142 56.84818 98.62479 -11.23419 2.97886 -0.07861 -8.03479 -59.11234 3.08879 68.52390 61.09415 -70.17679 66.22780 0.01487 0.00076 -101.26966 -26.42033 -21.31098 -20.26568 -28.72172 -20.92045 -114.75742 69.22712 102.77213 4.76379 -0.14490 -0.00914 2.06042 -30.15061 -12.81347 
32.63921 62.09898 -127.37325 12.80081 -3.05496 6.77373 -51.52454 58.69735 35.02760 0.04373 0.05562 -0.00659 -6.47413 -9.83593 18.51839 1.57697 9.13514 -0.27910 -131.33119 -32.75697 -114.17865 -49.60392 56.18281 -83.46640 0.01310 18.31156 13.27248 10.67325 11.83733 7.52876 88.43766 -27.05231 79.62106 42.27352 57.01863 100.38102 -12.28645 7.66638 1.45885 -9.65824 -63.30095 3.92613 76.70974 59.68293 -79.93011 68.65657 -0.00076 -0.01090 -104.39068 -26.67467 -21.07569 -20.48037 -34.78073 -15.40570 -132.37601 68.08216 118.02058 8.39432 -0.09701 -0.02632 0.91291 -46.11541 -17.40650 
31.66531 58.58172 -128.75450 13.36618 -2.70777 7.55708 -59.45861 64.13647 43.30797 0.05817 0.05733 -0.01425 -8.47349 -14.02741 17.82075 2.46886 3.48157 -1.58383 -131.41757 -36.62808 -112.49104 -49.75654 55.63940 -86.18249 7.77747 10.37597 -0.71215 12.01353 5.93036 6.73526 87.09296 -26.76152 78.16655 40.62949 56.89237 102.04349 -10.56463 5.70044 0.88200 -10.36879 -67.15247 4.15609 81.98248 59.00606 -86.88307 70.44957 -0.00849 -0.01519 -106.70975 -26.65279 -20.46231 -19.94024 -40.60091 -8.72759 -147.13177 66.05727 130.29393 10.88707 -0.08275 -0.03033 -0.69568 -54.26471 -16.15340 
30.73938 55.33384 -130.02859 13.75628 -2.27594 7.92946 -67.11037 67.99575 51.39415 0.01623 -0.04571 -0.02593 -9.24467 -17.70715 16.91906 2.85071 -0.81346 -2.40431 -131.54787 -39.09701 -111.26787 -49.59440 55.28746 -87.85429 2.52209 16.25923 7.60267 12.83060 1.41365 6.28401 85.84240 -26.46140 77.04050 39.18680 56.45409 103.48174 -10.75173 8.60240 1.42344 -10.41659 -70.65949 3.67056 85.62767 59.21250 -92.12040 71.44965 -0.00881 -0.01413 -108.24325 -26.58640 -19.61299 -18.73933 -46.16504 -1.08401 -158.73943 63.45036 139.76425 14.96891 -0.03457 -0.06202 2.93709 -49.68415 -11.87563 
29.72498 52.02948 -131.11198 13.99381 -1.81854 7.93199 -73.59297 70.62965 58.29405 0.01277 -0.04794 -0.02521 -9.05173 -21.32870 16.00524 2.84456 -4.21004 -3.07182 -131.85918 -41.17040 -110.27310 -49.37806 55.12286 -88.95419 7.21924 11.20012 -0.12418 13.42332 -2.20354 5.96528 84.33050 -26.12045 76.05085 37.93645 55.71923 104.72301 -9.40897 7.98656 0.81843 -9.72189 -73.99825 2.66058 88.95046 60.09093 -96.89145 71.36553 -0.00465 -0.00885 -108.85381 -26.71097 -18.70131 -17.17612 -51.51870 7.02836 -169.60069 59.54953 149.75256 18.92189 -0.04994 -0.02736 -6.69036 -65.97572 -14.83612 
28.70348 48.96600 -132.01395 14.10635 -1.37372 7.63357 -78.03859 72.39935 63.08317 0.00875 -0.04394 -0.02498 -7.95119 -24.95358 15.24935 2.56545 -6.64153 -3.54665 -132.24336 -42.91157 -109.41774 -49.18567 55.09342 -89.67844 4.11322 14.07573 4.45823 13.67295 -4.83220 5.65805 82.88186 -25.74502 75.34260 36.92385 54.77861 105.81661 -9.06545 9.81822 0.90255 -8.23464 -77.11293 1.28220 92.42480 61.45359 -101.64354 70.09692 -0.00299 -0.00366 -108.75044 -27.01264 -17.91919 -15.50572 -56.61367 15.11380 -177.42651 55.01190 157.91936 22.22413 -0.06991 -0.00759 -0.26374 -58.54473 -8.06064 
27.65430 46.09652 -132.71814 14.11687 -0.97465 7.09907 -79.89260 73.57527 65.19166 0.00511 -0.03804 -0.02284 -6.04737 -28.68613 14.71711 2.10594 -8.22861 -3.82520 -132.64088 -44.46614 -108.61479 -49.15869 55.09665 -90.21449 7.10090 10.90365 -0.06878 13.71552 -6.58727 5.43378 81.45677 -25.44553 74.87010 36.07770 53.72551 106.72294 -7.99761 9.58308 0.25296 -5.78566 -79.88412 -0.19978 96.22237 63.19015 -106.55654 67.64220 -0.00791 -0.00106 -107.83115 -27.58001 -17.28464 -13.94310 -61.43964 22.68641 -182.36850 50.59754 164.23616 25.00435 -0.08420 0.00213 -21.29091 -76.29997 -24.96941 
26.42980 43.35346 -133.19476 14.02911 -0.64690 6.37816 -74.67905 74.53149 59.66088 0.06382 -0.10402 -0.07053 -3.84207 -31.71075 15.37106 0.86680 -8.29327 -3.36048 -132.95439 -45.97451 -107.67052 -49.25754 55.28322 -90.48448 5.05444 12.12047 2.27894 13.01030 -6.67847 5.84680 79.85953 -25.32804 74.48678 35.32752 52.52552 107.44244 -7.40322 11.14708 0.29379 -1.35751 -82.13361 -0.66169 100.18466 65.13694 -111.55189 63.96410 -0.02010 -0.00330 -105.86061 -28.43703 -16.75780 -12.91632 -66.28720 29.00697 -187.19185 47.21815 170.68367 25.58767 -0.11504 0.01678 -4.14702 -65.85138 -7.58721 
